<?xml version="1.0" standalone="no"?>
<!DOCTYPE svg PUBLIC "-//W3C//DTD SVG 20010904//EN"
 "http://www.w3.org/TR/2001/REC-SVG-20010904/DTD/svg10.dtd">
<svg version="1.0" xmlns="http://www.w3.org/2000/svg"
 width="1000.000000pt" height="1000.000000pt" viewBox="0 0 1000.000000 1000.000000"
 preserveAspectRatio="xMidYMid meet">

<g transform="translate(0.000000,1000.000000) scale(0.100000,-0.100000)"
fill="#000000" stroke="none">
<path d="M1774 7977 c-87 -18 -170 -64 -232 -126 -55 -56 -85 -107 -131 -221
l-26 -65 1 -495 c1 -272 4 -1080 8 -1795 3 -715 7 -1633 7 -2040 1 -824 0
-821 68 -949 52 -100 131 -176 233 -225 120 -57 172 -62 567 -56 1069 17 4151
25 4550 11 144 -4 220 -11 230 -19 9 -7 5 2 -7 18 -91 119 -119 185 -131 300
-19 188 18 368 219 1072 334 1165 431 1433 574 1578 123 124 266 166 491 144
91 -9 233 -38 316 -64 17 -6 17 44 13 1132 -4 1175 -7 1350 -23 1380 -5 10
-18 51 -30 91 -36 128 -131 229 -268 284 -119 49 -135 50 -798 42 -341 -4
-1175 -8 -1852 -8 -678 -1 -1233 -5 -1233 -9 0 -5 -6 -5 -12 0 -7 4 -418 9
-913 9 -495 1 -972 5 -1060 8 -412 15 -501 15 -561 3z m5081 -1032 c80 -21
157 -59 174 -86 18 -31 26 -131 12 -157 -15 -28 -50 -28 -121 -1 -86 34 -167
48 -270 49 -195 0 -290 -57 -290 -177 0 -91 67 -148 242 -203 198 -61 283 -92
325 -116 76 -45 131 -102 165 -172 30 -60 33 -75 33 -157 0 -85 -2 -96 -38
-167 -61 -125 -156 -199 -314 -247 -100 -30 -320 -33 -443 -7 -101 21 -201 66
-230 103 -18 23 -20 38 -18 102 l3 76 36 3 c23 2 61 -7 100 -23 92 -37 197
-55 331 -55 94 0 127 4 171 21 70 27 111 67 127 124 36 129 -40 196 -306 271
-241 68 -351 140 -416 272 -30 60 -33 75 -33 157 0 78 4 98 29 153 34 73 126
165 202 202 108 52 158 60 319 56 93 -3 173 -11 210 -21z m-3314 0 c156 -33
274 -133 325 -276 33 -93 37 -147 38 -494 l1 -350 38 -83 c52 -112 49 -125
-37 -184 -44 -30 -80 -48 -99 -48 -35 0 -76 40 -119 117 -17 29 -32 53 -35 53
-3 0 -32 -24 -65 -54 -100 -91 -265 -156 -395 -156 -66 0 -182 28 -237 58 -60
32 -129 100 -157 153 -26 52 -49 152 -49 219 0 165 95 313 251 388 129 63 247
76 444 47 55 -9 119 -18 143 -21 l42 -7 0 94 c0 161 -37 252 -119 293 -131 66
-284 59 -511 -23 -138 -51 -160 -42 -160 67 0 45 5 66 21 86 79 101 457 168
680 121z m1580 -25 c31 -17 45 -56 89 -245 69 -299 110 -471 156 -658 24 -97
44 -180 44 -184 0 -4 4 -3 9 2 10 10 52 170 191 720 46 183 88 331 99 345 17
24 22 25 131 25 142 0 144 -2 114 -112 -27 -100 -247 -821 -325 -1066 -39
-121 -67 -194 -81 -207 -19 -17 -36 -20 -131 -20 -114 0 -139 7 -158 42 -6 11
-31 102 -54 202 -23 100 -65 269 -92 376 -28 107 -63 250 -79 317 -15 68 -31
120 -35 115 -9 -9 -40 -135 -114 -467 -114 -505 -126 -546 -161 -574 -23 -18
-41 -21 -125 -21 -128 0 -148 15 -184 133 -63 212 -108 357 -165 537 -115 361
-210 678 -210 697 0 37 20 43 133 43 59 0 117 -4 127 -10 10 -5 25 -31 34 -57
16 -49 27 -91 172 -662 46 -184 88 -340 93 -348 9 -16 17 10 46 147 19 89 37
171 59 260 9 36 25 106 36 155 12 50 35 149 51 220 17 72 37 160 46 197 16 71
25 84 70 98 40 12 191 12 214 0z m2124 -1754 c75 -26 95 -53 95 -130 0 -211
-112 -492 -259 -649 -58 -63 -121 -87 -121 -47 0 11 16 66 36 122 140 404 147
488 46 523 -56 18 -266 20 -392 3 -47 -6 -109 -12 -139 -12 -106 -2 -88 56 36
115 81 38 136 56 253 79 123 25 367 22 445 -4z m-4270 -256 c205 -100 308
-142 520 -212 620 -204 1296 -278 1925 -212 131 13 200 23 370 53 239 41 570
139 873 257 77 30 151 54 167 54 42 0 80 -34 74 -68 -8 -40 -36 -65 -168 -153
-292 -194 -693 -358 -1082 -443 -244 -54 -372 -67 -668 -73 -278 -6 -354 -1
-596 33 -426 60 -848 212 -1240 446 -178 106 -370 244 -477 343 -63 56 -63 57
-63 112 l0 54 93 -51 c50 -28 173 -91 272 -140z"/>
<path d="M3208 6136 c-90 -26 -139 -73 -162 -157 -29 -100 -15 -164 48 -224
74 -72 198 -83 328 -31 146 59 195 133 205 307 l6 87 -54 12 c-81 19 -314 22
-371 6z"/>
</g>
</svg>
